<svg width="296" height="78" viewBox="0 0 296 78" fill="none" xmlns="http://www.w3.org/2000/svg">
<path d="M42.7536 23.5862C52.3305 23.5862 57.768 29.7 58.557 37.0886H58.7979C64.9623 37.0886 69.9606 41.8964 69.9606 47.8276C69.9606 53.7587 64.9623 58.5665 58.7979 58.5665H56.1006L56.0345 58.7259L50.2627 69.2355C50.0311 69.6624 49.6479 69.9871 49.1888 70.1456C48.7296 70.3041 48.2278 70.2849 47.7821 70.0918C47.3364 69.8987 46.9792 69.5457 46.7808 69.1023C46.5824 68.6589 46.5573 68.1574 46.7103 67.6964L46.8502 67.3777L51.6931 58.5665H44.4871L44.4171 58.7259L38.6454 69.2355C38.4137 69.6624 38.0306 69.9871 37.5714 70.1456C37.1123 70.3041 36.6105 70.2849 36.1648 70.0918C35.7191 69.8987 35.3619 69.5457 35.1635 69.1023C34.9651 68.6589 34.9399 68.1574 35.0929 67.6964L35.2329 67.3777L40.0796 58.5665H32.8037L26.9892 69.2355C26.7575 69.6624 26.3743 69.9871 25.9152 70.1456C25.4561 70.3041 24.9542 70.2849 24.5085 70.0918C24.0629 69.8987 23.7056 69.5457 23.5073 69.1023C23.3089 68.6589 23.2837 68.1574 23.4367 67.6964L23.5766 67.3777L28.3806 58.5665H26.7093C20.545 58.5665 15.5467 53.7587 15.5467 47.8276C15.5467 41.8964 20.545 37.0886 26.7093 37.0886H26.9503C27.7432 29.6494 33.1729 23.5862 42.7536 23.5862ZM42.7536 27.4729C36.3406 27.4729 30.7554 32.409 30.7554 39.2302C30.7554 40.3107 29.7682 41.158 28.6371 41.158H26.4994C22.5972 41.1541 19.4334 44.1857 19.4334 47.9169C19.4334 51.6482 22.5972 54.6798 26.4994 54.6798H59.0078C62.9101 54.6798 66.0738 51.6482 66.0738 47.9169C66.0738 44.1857 62.9101 41.1541 59.0078 41.1541H56.8701C55.7391 41.158 54.7519 40.3107 54.7519 39.2302C54.7519 32.3235 49.1628 27.4729 42.7536 27.4729ZM14.781 34.0803C14.9305 34.5112 14.9236 34.9809 14.7615 35.4073C14.5995 35.8336 14.2927 36.1894 13.8949 36.4123L13.5762 36.5522L10.4629 37.625C10.0035 37.7857 9.50043 37.7682 9.05328 37.5759C8.60612 37.3836 8.24741 37.0305 8.04809 36.5865C7.84877 36.1424 7.82335 35.6397 7.97687 35.1778C8.13039 34.7158 8.45165 34.3284 8.87714 34.0919L9.19585 33.952L12.313 32.8793C12.8001 32.7122 13.3336 32.7452 13.7963 32.9711C14.2591 33.197 14.6132 33.5973 14.781 34.0842V34.0803ZM34.6693 17.7561C35.9636 18.3858 37.0985 19.2059 38.0663 20.1659C36.4883 20.4885 35.0113 20.9821 33.651 21.6234C31.8956 20.5668 29.8283 20.1511 27.8009 20.4471C25.7736 20.7431 23.9114 21.7324 22.5313 23.2468C21.1512 24.7611 20.3385 26.7068 20.2315 28.7529C20.1244 30.799 20.7297 32.8189 21.9442 34.469C20.6616 34.8499 19.4567 35.4057 18.349 36.1014C16.8464 33.7606 16.1505 30.9927 16.3676 28.2196C16.5846 25.4465 17.7027 22.8205 19.5513 20.7421C21.3998 18.6637 23.8774 17.2469 26.6063 16.7077C29.3351 16.1686 32.1653 16.5368 34.6654 17.7561H34.6693ZM11.3374 18.4169L11.66 18.5413L14.6217 19.9832C15.0583 20.1955 15.3997 20.5634 15.5786 21.0147C15.7575 21.466 15.7611 21.9679 15.5885 22.4217C15.416 22.8755 15.0799 23.2482 14.6463 23.4666C14.2127 23.685 13.7131 23.7332 13.2458 23.6017L12.9154 23.4774L9.95764 22.0354C9.52103 21.8232 9.17967 21.4552 9.00074 21.0039C8.82181 20.5526 8.81826 20.0507 8.9908 19.5969C9.16334 19.1432 9.49947 18.7704 9.93304 18.552C10.3666 18.3336 10.8662 18.2854 11.3335 18.4169H11.3374ZM38.8281 9.18596C39.2373 9.38562 39.5634 9.72263 39.7495 10.1382C39.9356 10.5537 39.9699 11.0214 39.8464 11.4597L39.722 11.7862L38.28 14.7478C38.0678 15.1844 37.6998 15.5258 37.2485 15.7047C36.7973 15.8837 36.2953 15.8872 35.8416 15.7147C35.3878 15.5421 35.015 15.206 34.7967 14.7724C34.5783 14.3389 34.5301 13.8393 34.6615 13.3719L34.7859 13.0416L36.2279 10.0799C36.3398 9.8499 36.496 9.64426 36.6876 9.47477C36.8792 9.30528 37.1024 9.17528 37.3443 9.09223C37.5862 9.00918 37.8422 8.97471 38.0975 8.99079C38.3528 9.00687 38.6024 9.0732 38.832 9.18596H38.8281ZM24.0975 9.06158L24.2413 9.38029L25.314 12.4974C25.4717 12.9563 25.452 13.4575 25.2589 13.9026C25.0658 14.3477 24.7131 14.7044 24.2703 14.9027C23.8275 15.101 23.3265 15.1264 22.8659 14.9741C22.4052 14.8217 22.0182 14.5025 21.781 14.0793L21.6372 13.7606L20.5683 10.6474C20.4131 10.1896 20.4341 9.69041 20.6271 9.24726C20.8201 8.80411 21.1714 8.4488 21.6123 8.25069C22.0532 8.05257 22.5521 8.02588 23.0116 8.17582C23.4711 8.32575 23.8583 8.64156 24.0975 9.06158Z" fill="#FF385C"/>
<path d="M183.295 35.0505V47.0104C183.295 48.343 183.539 49.2647 184.028 49.7756C184.516 50.2642 185.382 50.5085 186.626 50.5085H188.658V51.8411H186.393C184.816 51.8411 183.65 51.4746 182.895 50.7417C182.162 49.9866 181.796 48.7428 181.796 47.0104V35.0505H179.064V33.7512H181.796V29.1538H183.295V33.7512H188.658V35.0505H183.295ZM193.711 29.7202C193.356 29.7202 193.056 29.6091 192.812 29.387C192.568 29.1427 192.446 28.8207 192.446 28.4209C192.446 28.0433 192.568 27.7324 192.812 27.4881C193.056 27.2438 193.356 27.1216 193.711 27.1216C194.067 27.1216 194.367 27.2438 194.611 27.4881C194.855 27.7324 194.977 28.0433 194.977 28.4209C194.977 28.8207 194.855 29.1427 194.611 29.387C194.367 29.6091 194.067 29.7202 193.711 29.7202ZM194.444 33.7512V51.8411H192.945V33.7512H194.444ZM216.564 41.5802C216.564 42.3797 216.542 42.9794 216.497 43.3792H200.873C200.917 45.0005 201.273 46.3664 201.939 47.4769C202.605 48.5873 203.482 49.4202 204.571 49.9754C205.659 50.5307 206.847 50.8083 208.135 50.8083C209.912 50.8083 211.4 50.3752 212.6 49.509C213.799 48.6207 214.554 47.4213 214.865 45.9111H216.431C216.075 47.7545 215.165 49.2536 213.699 50.4085C212.233 51.5412 210.379 52.1076 208.135 52.1076C206.447 52.1076 204.937 51.73 203.605 50.9749C202.272 50.2198 201.228 49.1426 200.473 47.7434C199.718 46.3219 199.34 44.6673 199.34 42.7795C199.34 40.8917 199.707 39.2481 200.44 37.8489C201.195 36.4497 202.239 35.3837 203.571 34.6507C204.904 33.8956 206.425 33.518 208.135 33.518C209.868 33.518 211.367 33.8956 212.633 34.6507C213.921 35.3837 214.898 36.372 215.565 37.6157C216.231 38.8373 216.564 40.1587 216.564 41.5802ZM215.065 42.1465C215.131 40.5474 214.843 39.1926 214.199 38.0821C213.577 36.9716 212.722 36.1499 211.633 35.6169C210.545 35.0616 209.368 34.784 208.102 34.784C206.836 34.784 205.659 35.0616 204.571 35.6169C203.505 36.1499 202.627 36.9716 201.939 38.0821C201.273 39.1926 200.917 40.5474 200.873 42.1465H215.065ZM242.816 33.3848C244.881 33.3848 246.569 34.0511 247.88 35.3837C249.19 36.694 249.845 38.6485 249.845 41.247V51.8411H248.379V41.347C248.379 39.1926 247.858 37.5491 246.814 36.4164C245.792 35.2615 244.382 34.684 242.583 34.684C240.717 34.684 239.218 35.3281 238.085 36.6163C236.953 37.9045 236.386 39.7701 236.386 42.2131V51.8411H234.92V41.347C234.92 39.1926 234.398 37.5491 233.355 36.4164C232.333 35.2615 230.923 34.684 229.124 34.684C227.258 34.684 225.759 35.3281 224.626 36.6163C223.493 37.9045 222.927 39.7701 222.927 42.2131V51.8411H221.428V33.7512H222.927V37.6824C223.438 36.2609 224.26 35.1949 225.392 34.4842C226.547 33.7512 227.869 33.3848 229.357 33.3848C231 33.3848 232.411 33.8179 233.588 34.684C234.787 35.528 235.609 36.7829 236.053 38.4486C236.475 36.7829 237.297 35.528 238.518 34.684C239.74 33.8179 241.172 33.3848 242.816 33.3848ZM256.998 38.5152C257.509 37.0494 258.43 35.8501 259.763 34.9173C261.118 33.9844 262.75 33.518 264.66 33.518C266.348 33.518 267.847 33.8956 269.158 34.6507C270.49 35.4059 271.523 36.483 272.256 37.8822C273.011 39.2815 273.389 40.9139 273.389 42.7795C273.389 44.6451 273.011 46.2886 272.256 47.7101C271.523 49.1093 270.49 50.1975 269.158 50.9749C267.847 51.73 266.348 52.1076 264.66 52.1076C262.772 52.1076 261.151 51.6412 259.796 50.7084C258.464 49.7533 257.531 48.554 256.998 47.1104V60.3696H255.499V33.7512H256.998V38.5152ZM271.856 42.7795C271.856 41.136 271.545 39.7146 270.923 38.5152C270.301 37.3159 269.424 36.4053 268.291 35.7834C267.181 35.1393 265.893 34.8173 264.427 34.8173C263.028 34.8173 261.762 35.1505 260.629 35.8167C259.496 36.4608 258.608 37.3936 257.964 38.6152C257.32 39.8145 256.998 41.2026 256.998 42.7795C256.998 44.3786 257.32 45.7889 257.964 47.0104C258.608 48.2098 259.496 49.1426 260.629 49.8089C261.762 50.453 263.028 50.775 264.427 50.775C265.893 50.775 267.181 50.453 268.291 49.8089C269.424 49.1648 270.301 48.2431 270.923 47.0438C271.545 45.8444 271.856 44.423 271.856 42.7795ZM286.21 52.1076C284.522 52.1076 283 51.73 281.646 50.9749C280.291 50.2198 279.225 49.1426 278.447 47.7434C277.692 46.3219 277.315 44.6673 277.315 42.7795C277.315 40.9139 277.703 39.2815 278.481 37.8822C279.258 36.4608 280.324 35.3837 281.679 34.6507C283.056 33.8956 284.588 33.518 286.276 33.518C287.964 33.518 289.486 33.8956 290.84 34.6507C292.195 35.3837 293.25 36.4497 294.005 37.8489C294.783 39.2481 295.171 40.8917 295.171 42.7795C295.171 44.6673 294.783 46.3219 294.005 47.7434C293.228 49.1426 292.151 50.2198 290.774 50.9749C289.419 51.73 287.898 52.1076 286.21 52.1076ZM286.21 50.775C287.52 50.775 288.742 50.4863 289.874 49.9088C291.029 49.3092 291.951 48.4097 292.639 47.2103C293.328 46.011 293.672 44.5341 293.672 42.7795C293.672 41.0471 293.328 39.5813 292.639 38.382C291.951 37.1826 291.04 36.2943 289.908 35.7168C288.775 35.1171 287.553 34.8173 286.243 34.8173C284.933 34.8173 283.711 35.1171 282.578 35.7168C281.468 36.2943 280.568 37.1826 279.88 38.382C279.191 39.5813 278.847 41.0471 278.847 42.7795C278.847 44.5341 279.18 46.011 279.847 47.2103C280.535 48.4097 281.435 49.3092 282.545 49.9088C283.678 50.4863 284.899 50.775 286.21 50.775Z" fill="#FF385C"/>
<path fill-rule="evenodd" clip-rule="evenodd" d="M82.8462 51.0559C83.8838 51.5369 85.0163 51.778 86.1597 51.7612C87.3287 51.7806 88.4833 51.5006 89.5137 50.9479C90.5441 50.3952 91.4162 49.5881 92.0472 48.6033L92.199 51.2754H96.6449V32.935H92.2141L92.0624 35.3186C91.4504 34.3963 90.614 33.6448 89.6318 33.1349C88.6497 32.625 87.5541 32.3733 86.448 32.4036C85.2725 32.393 84.109 32.6403 83.0394 33.1282C81.9697 33.6161 81.02 34.3327 80.2571 35.2276C78.6077 37.1661 77.7132 39.6353 77.7382 42.1811C77.6669 44.6727 78.5334 47.1002 80.166 48.9828C80.8926 49.8664 81.8086 50.5749 82.8462 51.0559ZM89.6953 46.7055C88.9669 47.1458 88.193 47.3887 87.3129 47.3887C86.448 47.3887 85.6742 47.1458 84.961 46.7055C84.2218 46.195 83.6277 45.5014 83.2367 44.6924C82.8457 43.8834 82.6713 42.9867 82.7304 42.09C82.7084 41.1467 82.9058 40.2111 83.307 39.3572C83.7319 38.5829 84.2782 37.9452 84.9458 37.4594C85.6561 37.0166 86.4761 36.7819 87.3129 36.7819C88.1498 36.7819 88.9698 37.0166 89.6801 37.4594C90.4193 37.9698 91.0134 38.6634 91.4044 39.4724C91.7954 40.2815 91.9698 41.1781 91.9107 42.0748C91.9107 43.1072 91.7134 44.0334 91.334 44.8077C90.9092 45.582 90.3629 46.2196 89.6953 46.7055Z" fill="#FF385C"/>
<path d="M103.898 29.3975C104.141 29.0028 104.232 28.5169 104.232 27.9855C104.243 27.4909 104.134 27.001 103.913 26.5584C103.656 26.1492 103.297 25.8137 102.872 25.5849C102.446 25.356 101.968 25.2416 101.485 25.2527C100.985 25.2527 100.514 25.359 100.074 25.6019C99.6493 25.8448 99.3003 26.1181 99.0576 26.5736C98.83 26.9531 98.7237 27.439 98.7237 27.9855C98.7073 28.4775 98.8226 28.965 99.0576 29.3975C99.3081 29.8029 99.658 30.1374 100.074 30.3692C100.514 30.6121 101 30.7032 101.485 30.7032C101.971 30.7032 102.441 30.6121 102.881 30.3692C103.321 30.1263 103.655 29.7771 103.898 29.3975Z" fill="#FF385C"/>
<path d="M99.0727 32.9046V51.2147L99.0576 51.245H103.898V32.9046H99.0727Z" fill="#FF385C"/>
<path d="M116.796 37.763V32.8439C116.743 32.8174 116.69 32.8064 116.625 32.7928C116.579 32.783 116.526 32.7719 116.462 32.7528C116.174 32.6921 115.84 32.6617 115.491 32.6617C114.519 32.6246 113.559 32.8898 112.744 33.4208C111.925 33.9674 111.348 34.6962 110.863 35.6678L110.711 32.8895H106.265V51.2298H111.106V42.2267C111.106 40.7236 111.439 39.5545 112.168 38.7195C112.835 37.8997 113.852 37.5049 115.203 37.5049C115.491 37.5049 115.734 37.5049 116.037 37.5656C116.074 37.573 116.112 37.5803 116.152 37.5879C116.36 37.6274 116.605 37.6738 116.796 37.763Z" fill="#FF385C"/>
<path fill-rule="evenodd" clip-rule="evenodd" d="M118.738 25.3742V51.245L123.169 51.1995L123.321 48.8158C123.933 49.7382 124.769 50.4896 125.751 50.9996C126.733 51.5095 127.829 51.7611 128.935 51.7309C130.111 51.7415 131.274 51.4941 132.344 51.0062C133.413 50.5183 134.363 49.8018 135.126 48.9069C136.775 46.9684 137.67 44.4991 137.645 41.9534C137.72 39.4566 136.853 37.023 135.217 35.1365C134.126 33.8157 132.623 32.9011 130.949 32.5403C129.275 32.1794 127.529 32.3933 125.991 33.1476C125.02 33.6789 124.246 34.3622 123.563 35.2427V25.3742H118.738ZM130.437 46.7055C129.709 47.1458 128.935 47.3887 128.07 47.3887C127.19 47.3887 126.416 47.1458 125.703 46.7055C124.964 46.195 124.37 45.5014 123.979 44.6924C123.588 43.8834 123.413 42.9867 123.472 42.09C123.45 41.1467 123.648 40.2111 124.049 39.3572C124.489 38.5829 125.02 37.9452 125.703 37.4594C126.413 37.0166 127.233 36.7819 128.07 36.7819C128.907 36.7819 129.727 37.0166 130.437 37.4594C131.118 37.9622 131.678 38.6106 132.076 39.3572C132.471 40.1315 132.653 41.0576 132.653 42.0748C132.653 43.1072 132.471 44.0334 132.076 44.8077C131.651 45.582 131.105 46.2196 130.437 46.7055Z" fill="#FF385C"/>
<path d="M139.466 32.8895V51.2298H144.261V40.7236C144.241 40.0097 144.409 39.3032 144.746 38.674C145.08 38.0515 145.52 37.6112 146.051 37.262C146.613 36.928 147.25 36.7762 147.978 36.7762C148.98 36.7762 149.769 37.1709 150.345 37.8997C150.922 38.6436 151.21 39.6456 151.21 40.921V51.2754H156.051V40.2833C156.051 38.6891 155.763 37.262 155.231 36.1081C154.736 34.9888 153.922 34.0404 152.891 33.3815C151.86 32.7226 150.658 32.3825 149.435 32.4036C148.365 32.3598 147.303 32.6027 146.359 33.1072C145.415 33.6116 144.622 34.3594 144.063 35.2731L143.912 32.8895H139.466Z" fill="#FF385C"/>
<path fill-rule="evenodd" clip-rule="evenodd" d="M158.463 25.359V51.2298L162.909 51.1843L163.046 48.8006C163.658 49.723 164.494 50.4744 165.477 50.9844C166.459 51.4943 167.554 51.746 168.66 51.7157C169.836 51.7263 170.999 51.479 172.069 50.9911C173.139 50.5032 174.088 49.7866 174.851 48.8917C176.502 46.9539 177.397 44.4842 177.37 41.9382C177.443 39.4491 176.582 37.0229 174.958 35.1365C174.231 34.2529 173.315 33.5443 172.277 33.0634C171.24 32.5824 170.107 32.3413 168.964 32.3581C167.862 32.3634 166.777 32.6255 165.795 33.1236C164.813 33.6217 163.96 34.3421 163.304 35.2276V25.359H158.463ZM170.208 46.7055C169.495 47.1458 168.721 47.3887 167.841 47.3887C166.931 47.3887 166.202 47.1458 165.489 46.7055C164.75 46.195 164.156 45.5014 163.765 44.6924C163.374 43.8834 163.199 42.9867 163.258 42.09C163.213 41.1446 163.412 40.2035 163.835 39.3572C164.26 38.5829 164.806 37.9452 165.474 37.4594C166.184 37.0166 167.004 36.7819 167.841 36.7819C168.678 36.7819 169.498 37.0166 170.208 37.4594C170.947 37.9698 171.541 38.6634 171.932 39.4724C172.323 40.2815 172.498 41.1781 172.439 42.0748C172.439 43.1072 172.241 44.0334 171.862 44.8077C171.422 45.582 170.891 46.2196 170.208 46.7055Z" fill="#FF385C"/>
</svg>
